<svg version="1.1" id="Layer_1" xmlns="http://www.w3.org/2000/svg" xmlns:xlink="http://www.w3.org/1999/xlink" x="0px" y="0px" viewBox="0 0 223.4 103.1" style="enable-background:new 0 0 223.4 103.1;" xml:space="preserve">
 <style type="text/css">
  .st0{fill:#231F20;}
	.st1{clip-path:url(#SVGID_2_);}
	.st2{fill:url(#SVGID_3_);}
	.st3{clip-path:url(#SVGID_5_);}
	.st4{fill:url(#SVGID_6_);}
	.st5{fill:url(#SVGID_7_);}
	.st6{fill:url(#SVGID_8_);}
	.st7{fill:url(#SVGID_9_);}
	.st8{fill:url(#SVGID_10_);}
	.st9{fill:#FFFFFF;}
	.st10{fill:none;}
 </style>
 <g id="Layer_1_1_">
  <g>
   <g>
    <path class="st0" d="M202.2,39.2c7.2,0,9.9,1.3,9.9,4.7c0,0.9-0.4,1.7-1,2.3c-1.4,1.4-4.1,2.2-7.5,2h-0.2l-2,4.5h2
				c4-0.1,7.4,1,9.1,2.8c0.8,0.8,1.2,1.8,1.2,2.9c0,3.5-3.6,5.3-10.7,5.3c-1.2,0-3.1,0-4.3-0.1c-0.2-4.7-0.3-11-0.3-12.8
				c0-2.2,0.1-7.2,0.3-11.4C200,39.3,201.1,39.2,202.2,39.2z M189,36c0.3,3.4,0.5,11.7,0.5,14.8c0,2.8-0.1,12.2-0.6,16.3v0.3h17.2
				c8.4,0,17.4-2.3,17.4-8.7c0-4-3.4-7-9.8-8.7c4.6-1,7.8-3.8,7.8-7c0-5.2-7-7.2-13.6-7.4h-19L189,36z">
    </path>
    <path class="st0" d="M185.4,67.4v-4.6c-6.9,0.3-13.8,0.4-20.8,0.5c-0.1-3.2-0.2-7.2-0.2-10l13.6,0.2v-4.8L164.4,49
				c0-2.5,0.1-6.1,0.2-9.1c2,0,3-0.1,4.4-0.1c5.1,0,10.3-0.1,15.4,0.4v-4.6h-21l0,0h-8.8V36c0.3,3.4,0.5,11.7,0.5,14.8
				c0,2.8-0.1,12.2-0.6,16.3v0.3L185.4,67.4z">
    </path>
    <path class="st0" d="M138.8,67.4v-0.3c-0.5-4.1-0.6-13.5-0.6-16.3c0-2.2,0.1-7.2,0.3-11.1c5.5,0.1,7.1,0.2,12,0.6v-4.6h-33.7v4.6
				c4.9-0.4,6.4-0.5,12-0.6c0.2,3.9,0.3,8.9,0.3,11.1c0,2.8,0,12.2-0.6,16.3v0.3H138.8z">
    </path>
   </g>
   <g>
    <defs>
     <rect id="SVGID_1_" width="103.1" height="103.1">
     </rect>
    </defs>
    <clipPath id="SVGID_2_">
     <use href="#SVGID_1_" style="overflow:visible;">
     </use>
    </clipPath>
    <g class="st1">
     <linearGradient id="SVGID_3_" gradientUnits="userSpaceOnUse" x1="-210.5889" y1="-544.637" x2="-208.1889" y2="-544.637" gradientTransform="matrix(0 45.25 -45.25 0 -24593.2891 9527.1396)">
      <stop offset="0" style="stop-color:#008054">
      </stop>
      <stop offset="0.6" style="stop-color:#7FCBAE">
      </stop>
      <stop offset="1" style="stop-color:#00A76D">
      </stop>
     </linearGradient>
     <rect class="st2" width="103.1" height="103.1">
     </rect>
    </g>
   </g>
   <g>
    <defs>
     <path id="SVGID_4_" d="M8,1.8c-2,0-3.3,1.7-3.6,4.1c0,0-2.6,13.5-2.6,42.3s2.6,47.6,2.6,47.6C4.7,97.9,6,99.7,8,99.7h89.2
					c2,0,3.6-1.6,3.6-4.1c0,0-1-22-1-43.5s1-46.3,1-46.3c0.1-2.1-1.5-3.9-3.6-4L8,1.8z">
     </path>
    </defs>
    <clipPath id="SVGID_5_">
     <use xlink:href="#SVGID_4_" style="overflow:visible;">
     </use>
    </clipPath>
    <g class="st3">
     <linearGradient id="SVGID_6_" gradientUnits="userSpaceOnUse" x1="-209.397" y1="-544.0653" x2="-206.987" y2="-544.0653" gradientTransform="matrix(0 50.85 -50.85 0 -27614.3184 10622.1895)">
      <stop offset="0" style="stop-color:#00A76D">
      </stop>
      <stop offset="0.3" style="stop-color:#7FCBAE">
      </stop>
      <stop offset="0.55" style="stop-color:#00A76D">
      </stop>
      <stop offset="0.84" style="stop-color:#008054">
      </stop>
      <stop offset="0.89" style="stop-color:#00895C">
      </stop>
      <stop offset="0.97" style="stop-color:#00A173">
      </stop>
      <stop offset="1" style="stop-color:#00AD7E">
      </stop>
     </linearGradient>
     <rect x="1.9" y="1.8" class="st4" width="99.1" height="97.9">
     </rect>
    </g>
   </g>
   <g>
    <linearGradient id="SVGID_7_" gradientUnits="userSpaceOnUse" x1="80.75" y1="72.405" x2="121.76" y2="72.405" gradientTransform="matrix(1 0 0 -1 -30.3 101.18)">
     <stop offset="0" style="stop-color:#00B387">
     </stop>
     <stop offset="1" style="stop-color:#00A76D">
     </stop>
    </linearGradient>
    <path class="st5" d="M91.5,18.4c-3.9,0.3-6,0.4-8.1,1.1c-5-3-16.3-7-24.9-8l-0.3,0.7c2.8,1.2,14.1,7.3,15.5,9.2
				C68,22.2,56.8,25.1,50.8,28l-0.3,0.7c6.6-1.5,15.9-2.2,22.3-2.6c-2.3,3.3-4.8,6.3-7.6,9.1L64.8,36c6.9-4.2,8.9-4.5,15.2-8.2
				c2.4,3.6,3,11.8,3.1,18.3c2.1-4.1,4.6-19.7,3.5-22.5C90.9,20.7,91.5,18.4,91.5,18.4z">
    </path>
    <linearGradient id="SVGID_8_" gradientUnits="userSpaceOnUse" x1="40.24" y1="27.105" x2="64.09" y2="27.105" gradientTransform="matrix(1 0 0 -1 -30.3 101.18)">
     <stop offset="0" style="stop-color:#00B387">
     </stop>
     <stop offset="1" style="stop-color:#00A76D">
     </stop>
    </linearGradient>
    <path class="st6" d="M27.7,71.2l0.3-0.7c-2.9,0.4-5.5,1.5-8.1,2c-2-3.5-2.8-8.3-3.8-12.8l-0.3,0.7c-0.6,5.2-0.8,8.9,0,13
				c-2.1,0.6-3.9,0.7-5.6,1.4l-0.3,0.7c2.5,1.6,5.2,3.1,7.9,4.3c1.4,3.2,3.5,6.1,6,8.5l0.3-0.7c-0.5-2-1.1-3.6-0.9-5.8
				c3.3,1,6.7,1.5,10.1,1.6l0.3-0.7c-3.4-1.3-6.8-2.3-9.5-4.9C25.1,75.5,26.3,73.3,27.7,71.2z">
    </path>
    <linearGradient id="SVGID_9_" gradientUnits="userSpaceOnUse" x1="47.14" y1="56.935" x2="87.77" y2="56.935" gradientTransform="matrix(1 0 0 -1 -30.3 101.18)">
     <stop offset="0" style="stop-color:#00B387">
     </stop>
     <stop offset="1" style="stop-color:#00A76D">
     </stop>
    </linearGradient>
    <path class="st7" d="M57.1,43.5l0.3-0.7c-5.4-2.7-11.3-4.5-17.3-5.4h0.3c0.7-1.9,1.5-3.8,2.5-5.6c-1.7,0.2-6.5,2.5-9.7,5
				c-1.9-0.1-3.9-0.2-5.8-0.1c-3,0.1-7.6,0.4-9.8,1.1l-0.3,0.7c3.5,0.2,8.3,1.1,10.2,2.9c0,0-5.3,4.8-10.6,15.3c0,0,9.6-9,13.7-11.2
				c0,0,2.2,7.2,3.7,10.8l0.3-0.7C35,53.3,36,47,37.8,43.1c0,0,0.6-0.4,3.7-0.7S48.9,42.1,57.1,43.5z">
    </path>
    <linearGradient id="SVGID_10_" gradientUnits="userSpaceOnUse" x1="69.54" y1="17.975" x2="91.82" y2="17.975" gradientTransform="matrix(1 0 0 -1 -30.3 101.18)">
     <stop offset="0" style="stop-color:#00B387">
     </stop>
     <stop offset="1" style="stop-color:#00A76D">
     </stop>
    </linearGradient>
    <path class="st8" d="M53,77c-1.5,2.1-3.2,4.2-4.9,6.1c-2,0.5-4.1,0.6-6.2,0.5c-0.8,0-1.6,0-2.3,0l-0.3,0.7c1.8,0.9,3.7,1.6,5.7,2
				c-1.7,1.3-3.4,2.5-5.2,3.6l-0.3,0.7c3.7-0.8,7.3-2.2,10.6-4c1.4,0.1,2.9,0,4.3-0.3c0,0,0.3-0.7,0.3-0.7c-0.2-0.7-0.9-1.2-1-2.2
				c2.7-2.1,5.2-4.4,7.6-6.9l0.3-0.7c-2.6,2-5.4,3.8-8.3,5.4C53.1,79.8,53,78.6,53,77z">
    </path>
   </g>
   <g>
    <path class="st9" d="M92.6,17.7c-3.9,0.3-6.1,0.4-8.1,1c-5.3-3.2-16.2-6.5-25.2-7.2c2.8,1.2,14.1,7.3,15.5,9.2
				c-6,0.8-17.4,4.2-23.2,7.3c6.6-1.5,15.9-2.2,22.3-2.6c-2.3,3.5-5,6.8-7.9,9.9c6.9-4.1,8.9-4.5,15.2-8.2c2.4,3.6,3,11.8,3.1,18.3
				c2.1-4.1,4.6-19.7,3.6-22.5C91.6,20.4,91.6,19.4,92.6,17.7z">
    </path>
    <path class="st9" d="M34.5,82.8c-3.4-1.2-6.6-3.1-9.2-5.7c0.9-2.4,2-4.6,3.5-6.7c-3,0.4-5.2,0.8-7.7,1.3c-2.1-3.7-3-7.2-4.1-12.1
				c-0.6,5.2-0.8,8.9,0,13c-2.1,0.5-4.1,1.2-6,2.1c2.5,1.6,5.2,3.1,7.9,4.4c1.4,3.2,3.5,6.1,6,8.5c-0.6-2.1-0.8-4.3-0.5-6.5
				C27.7,82.2,31.1,82.8,34.5,82.8z">
    </path>
    <path class="st9" d="M58.2,42.8c-5.2-3.1-11-5.2-17-6.1c0.7-2,1.6-3.8,2.8-5.5c-1.7,0.2-6.6,2.4-9.8,4.9
				c-1.9-0.1-3.9-0.2-5.8-0.1c-3.4,0.2-6.8,0.7-10.1,1.8c3.5,0.2,8.3,1.1,10.2,2.9c0,0-5.3,4.8-10.6,15.3c0,0,9.6-9,13.7-11.2
				c0,0,2.2,7.2,3.7,10.8c0,0,1.3-8.4,3.6-13.2c1.2-0.4,2.4-0.6,3.7-0.7C45.7,41.5,50,41.3,58.2,42.8z">
    </path>
    <path class="st9" d="M54.1,76.3c-1.7,2.2-3.1,4-4.9,6.1c-2.9,0.8-5.8,1.2-8.8,1.2c1.8,0.9,3.7,1.6,5.7,2c-1.7,1.6-3.6,3-5.6,4.3
				c3.7-0.8,7.3-2.2,10.6-4c1.4,0.1,2.9,0,4.3-0.3c-0.3-1-0.5-1.9-0.7-2.9c2.7-2.1,5.2-4.4,7.6-6.9c-2.5,1.8-5.2,3.3-8,4.7
				C54.2,79.1,54.1,77.9,54.1,76.3z">
    </path>
   </g>
   <rect class="st10" width="103.1" height="103.1">
   </rect>
  </g>
 </g>
</svg>