<svg version="1.1" id="Layer_1" xmlns:x="ns_extend;" xmlns:i="ns_ai;" xmlns:graph="ns_graphs;" xmlns="http://www.w3.org/2000/svg" xmlns:xlink="http://www.w3.org/1999/xlink" x="0px" y="0px" viewBox="0 0 372 65" style="enable-background:new 0 0 372 65;" xml:space="preserve">
 <style type="text/css">
  .st0{fill:#A8A9AC;}
	.st1{fill:#004587;}
 </style>
 <metadata>
  <sfw xmlns="ns_sfw;">
   <slices>
   </slices>
   <sliceSourceBounds bottomLeftOrigin="true" height="65" width="372" x="-177.4" y="0">
   </sliceSourceBounds>
  </sfw>
 </metadata>
 <g>
  <g>
   <g>
    <path class="st0" d="M125.1,20.9C118.3,1.2,98.6,0.1,96.6,0c-9.6-0.2-19,3.4-25.9,10.1c-2.8,2.7-5.3,5.8-7.3,9.1
				c-2-3.3-4.5-6.4-7.3-9.1C49,3.4,39.7-0.2,30,0C28,0.1,8.4,1.2,1.5,20.9C-1,28.5-0.4,36.7,3.3,43.8c3.6,7.8,12.3,14.1,21.4,13.4
				c7.2-0.2,13.6-4.6,16.6-11.2c2.6-6.1,1.1-13.2-3.6-17.8c0.3,1.7-0.1,3.5-1.1,4.9c-2,2.8-5.7,3.8-8.8,2.4
				c-2.7-0.9-4.3-3.6-3.8-6.4c0.4-2.4,2-4.4,4.2-5.3c4-1.7,7.7-0.9,11.3,2.6c5.9,6.6,6.6,16.6,9.4,24.2c2,6.2,5.1,11.7,12,13.2
				c0.8,0.2,1.7,0.3,2.6,0.3c0.9,0,1.7-0.1,2.6-0.3c6.9-1.6,10-7,12-13.2c2.8-7.6,3.5-17.6,9.4-24.2c3.6-3.4,7.3-4.3,11.3-2.6
				c2.2,0.9,3.8,2.9,4.2,5.3c0.4,2.8-1.2,5.5-3.8,6.4c-3.1,1.4-6.8,0.4-8.8-2.4c-1-1.4-1.4-3.2-1.1-4.9C84.3,33,82.9,40,85.4,46.1
				c2.9,6.6,9.3,10.9,16.5,11.2c9.1,0.6,17.8-5.7,21.4-13.4C127,36.7,127.6,28.5,125.1,20.9 M111.3,44.5c-3.8,3.6-9.4,4.7-14.2,2.7
				c-2.6-1.2-4.5-3.4-5.3-6.1c3.8,3.8,10.6,5.7,16.9-0.9c0,0,5.9-5.4,2.5-15.7c-1.7-5.1-7.9-9.3-13.1-9.8c-7.8-1.4-15.6,1.9-20,8.4
				c-5.9,9.2-6.7,19.4-11,29.6c-1.1,2.1-3.6,2.9-5.7,1.9c-0.8-0.4-1.5-1.1-1.9-1.9c-4.3-10.2-5-20.4-11-29.6
				c-4.4-6.6-12.3-9.9-20-8.4c-5.2,0.5-11.4,4.7-13.1,9.8C12.1,34.7,18,40.1,18,40.1c6.3,6.6,13.1,4.7,16.9,0.9
				c-0.8,2.7-2.7,4.9-5.3,6.1c-4.9,2-10.4,0.9-14.2-2.7c-5.6-5.5-7.5-13.8-4.7-21.2c3-8.8,11.8-13.2,18.9-13.7
				c8.4-0.7,19.9,4.4,24.5,13.1c1.1,2,3.3,7.2,3.3,7.2h11.7c0,0,2.2-5.2,3.3-7.2C77.1,13.9,88.6,8.8,97,9.5
				c7.1,0.6,15.9,5,18.9,13.7C118.7,30.6,116.9,39,111.3,44.5">
    </path>
    <path class="st1" d="M361.3,1.5H372v8.6h-10.6V1.5z">
    </path>
    <path class="st1" d="M151.8,32v23.3h-12V32L129.2,1.5H142l3.8,15l3.9-14.9h12.7L151.8,32z">
    </path>
    <path class="st1" d="M175.3,55.2l-0.5-2c-1.9,2-3.9,3-8,3c-4.4,0.1-7.6-4-7.5-8.9l0.1-6.9c0.2-11.3,15.5-7.8,15.5-16.2
				c0-1.8-0.1-3.2-2.1-3.2c-1.9,0-2.5,1.5-2.5,3.2v3.4h-10.9v-3.4c0-7.3,6.3-10.7,13.4-10.7c9.1,0,13.2,5.1,13.2,10.6v31.1
				L175.3,55.2z M174.8,34.7c-2.6,1.7-4.4,2.5-4.4,5.9v5c0,2.4,0.7,3.3,2.2,3.3s2.2-0.9,2.2-3.3L174.8,34.7z">
    </path>
    <path class="st1" d="M217.9,44.3c0,6.5-1.1,11.9-8.3,11.9c-3.1,0.3-6.1-1.1-7.9-3.7V65h-10.6V14.4h10.6l-0.1,4.2
				c1.4-3.3,4.9-5.4,8.5-5c5.8,0,7.7,5.5,7.7,10.8V44.3z M206.6,25.2c0-1.8-1-2.9-2.4-2.9c-1.5,0-2.5,1.1-2.5,3v19.3
				c0,1.8,1,2.9,2.4,2.9c1.5,0,2.5-1,2.5-2.9L206.6,25.2z">
    </path>
    <path class="st1" d="M223,14.5h10.6v40.7H223V14.5z">
    </path>
    <path class="st1" d="M259.7,55.2l-6.9-18.8l-1.6,3v15.9h-12V1.4h12v16.7l7.6-16.7h11.9l-11,22.6l11.9,31.1H259.7z">
    </path>
    <path class="st1" d="M294.9,25.6c-2.7-1-9.8-1.1-9.8,5.4v24.2h-10.6V14.5h9.9l-0.1,4.3c2.2-3.6,6.3-5.7,10.5-5.4L294.9,25.6
				L294.9,25.6z">
    </path>
    <path class="st1" d="M324.8,45c0,8.1-5.6,11.3-13.3,11.3c-7,0-13.3-3.4-13.3-11.4v-19c0-7.7,4.7-12.1,13.3-12.1
				c7,0,13.3,2.9,13.3,12.2v10.7h-15.6v9.8c0,1.7,0.7,2.6,2.3,2.6c1.6,0,2.3-0.9,2.3-2.6v-6h11V45L324.8,45z M313.6,23.6
				c0-1.7-0.7-2.6-2.2-2.6c-1.6,0-2.3,0.9-2.3,2.6v5.5h4.6L313.6,23.6z">
    </path>
    <path class="st1" d="M345.7,55.2v-4.2c-1,3.6-4.3,5-8.3,5c-6.6,0-7.8-5.5-7.8-10.7V25.6c0-6.5,1.6-12.1,8.1-12.1
				c3.1-0.2,6.1,1.2,8,3.7V1.5h10.6v53.7L345.7,55.2z M345.7,25c0-1.8-1-2.9-2.5-2.8c-1.5,0-2.5,1-2.5,2.9l0.1,19.4
				c0,1.9,1,2.9,2.4,2.9c1.5,0,2.5-1.1,2.5-3V25z">
    </path>
    <path class="st1" d="M361.3,14.6H372v40.7h-10.6V14.6z">
    </path>
   </g>
  </g>
 </g>
</svg>